<?xml version="1.0" standalone="no"?>
<!DOCTYPE svg PUBLIC "-//W3C//DTD SVG 20010904//EN"
 "http://www.w3.org/TR/2001/REC-SVG-20010904/DTD/svg10.dtd">
<svg version="1.0" xmlns="http://www.w3.org/2000/svg"
 width="700.000000pt" height="700.000000pt" viewBox="0 0 700.000000 700.000000"
 preserveAspectRatio="xMidYMid meet">
<metadata>
Created by potrace 1.14, written by Peter Selinger 2001-2017
</metadata>
<g transform="translate(0.000000,700.000000) scale(0.100000,-0.100000)"
fill="#000000" stroke="none">
<path d="M3425 6405 c-65 -19 -100 -42 -143 -90 -97 -111 -96 -273 4 -384 58
-64 124 -92 229 -97 113 -5 245 -14 275 -18 67 -11 126 -20 140 -22 29 -3 225
-53 275 -69 444 -146 826 -408 1110 -760 213 -265 382 -604 451 -905 29 -128
40 -190 49 -270 3 -30 8 -73 10 -95 6 -46 6 -355 0 -400 -2 -16 -7 -59 -11
-95 -5 -36 -8 -67 -9 -70 -1 -3 -5 -25 -9 -50 -4 -25 -19 -89 -32 -144 -178
-714 -679 -1297 -1364 -1589 -207 -88 -419 -140 -695 -172 -68 -8 -336 -8
-410 0 -567 59 -1038 279 -1440 671 -51 50 -115 122 -204 230 -40 47 -173 256
-220 344 -98 186 -178 416 -220 635 -29 152 -34 202 -45 428 -4 70 -10 101
-31 143 -85 174 -309 218 -453 89 -73 -66 -95 -124 -95 -255 -1 -326 57 -639
180 -975 145 -393 365 -737 663 -1035 142 -142 162 -160 280 -251 235 -180
461 -309 722 -413 120 -47 355 -120 424 -130 22 -4 55 -11 74 -16 49 -12 232
-39 327 -47 151 -12 565 -5 592 11 3 2 33 6 66 10 50 5 140 22 323 62 65 13
337 110 439 156 340 151 616 341 884 608 285 284 502 613 649 985 92 232 143
429 184 708 26 172 26 537 1 727 -88 659 -373 1240 -834 1701 -489 488 -1119
783 -1801 844 -137 12 -295 12 -335 0z"/>
<path d="M3295 5238 c-152 -22 -337 -67 -420 -103 -16 -7 -59 -26 -95 -41 -61
-26 -239 -124 -264 -145 -6 -5 -42 -33 -81 -61 -90 -67 -255 -232 -327 -328
-163 -218 -279 -475 -323 -713 -8 -45 -17 -95 -21 -112 -3 -16 -7 -106 -9
-200 -5 -231 17 -371 94 -616 31 -99 152 -332 224 -432 284 -394 703 -648
1187 -721 94 -14 409 -15 475 -2 17 4 53 11 80 17 50 10 113 44 151 83 53 54
85 151 77 232 -4 39 -41 126 -65 154 -33 39 -100 81 -147 93 -55 14 -71 14
-186 1 -126 -15 -307 -7 -400 17 -256 65 -460 189 -630 380 -138 155 -248 399
-271 602 -10 79 -10 224 -1 302 33 289 184 561 417 756 319 265 771 338 1160
187 363 -141 636 -459 718 -838 24 -106 45 -152 94 -202 56 -57 118 -82 204
-82 150 0 269 104 289 254 9 71 -35 264 -95 415 -237 596 -753 1004 -1388
1098 -103 15 -355 18 -447 5z"/>
<path d="M3477 4084 c-1 -1 -23 -4 -48 -7 -244 -29 -454 -222 -500 -459 -51
-263 78 -522 318 -643 53 -26 197 -61 243 -59 176 8 302 58 406 161 75 74 87
90 124 163 84 166 82 361 -6 530 -90 174 -258 287 -459 308 -41 5 -76 7 -78 6z"/>
</g>
</svg>
